<?xml version="1.0" encoding="utf-8"?>
<!-- Generator: Adobe Illustrator 18.0.0, SVG Export Plug-In . SVG Version: 6.00 Build 0)  -->
<!DOCTYPE svg PUBLIC "-//W3C//DTD SVG 1.1//EN" "http://www.w3.org/Graphics/SVG/1.1/DTD/svg11.dtd">
<svg version="1.1" id="Layer_1" xmlns="http://www.w3.org/2000/svg" xmlns:xlink="http://www.w3.org/1999/xlink" x="0px" y="0px"
	 viewBox="0 0 100.1 97.7" enable-background="new 0 0 100.1 97.7" xml:space="preserve">
<g>
	<path d="M93.4,24.9c-4.5-7.7-10.6-13.7-18.2-18.2C67.5,2.2,59.1,0,50.1,0C41,0,32.6,2.2,24.9,6.7c-7.7,4.5-13.7,10.5-18.2,18.2
		C2.2,32.6,0,41,0,50.1C0,61,3.2,70.8,9.5,79.5c6.4,8.7,14.6,14.7,24.7,18.1c1.2,0.2,2,0.1,2.6-0.5c0.6-0.5,0.8-1.2,0.8-2
		c0-0.1,0-1.3,0-3.5c0-2.2,0-4.1,0-5.8l-1.5,0.3c-1,0.2-2.2,0.2-3.6,0.2c-1.5,0-3-0.2-4.5-0.5c-1.6-0.3-3-0.9-4.4-2
		c-1.3-1-2.3-2.4-2.9-4l-0.7-1.5c-0.4-1-1.1-2.1-2.1-3.3c-0.9-1.2-1.9-2-2.8-2.5l-0.5-0.3c-0.3-0.2-0.6-0.5-0.8-0.8
		c-0.3-0.3-0.5-0.6-0.6-0.9c-0.1-0.3,0-0.6,0.3-0.8c0.3-0.2,1-0.3,1.9-0.3l1.3,0.2c0.9,0.2,1.9,0.7,3.2,1.6c1.3,0.9,2.3,2,3.2,3.4
		c1,1.8,2.2,3.1,3.6,4.1c1.4,0.9,2.8,1.4,4.3,1.4c1.4,0,2.7-0.1,3.7-0.3c1-0.2,2-0.5,2.9-1c0.4-2.9,1.5-5.2,3.2-6.7
		c-2.5-0.3-4.7-0.7-6.7-1.2c-2-0.5-4-1.4-6.1-2.5c-2.1-1.2-3.9-2.6-5.2-4.4c-1.4-1.7-2.5-4-3.4-6.8c-0.9-2.8-1.3-6.1-1.3-9.8
		c0-5.3,1.7-9.7,5.1-13.4c-1.6-4-1.5-8.4,0.5-13.3c1.3-0.4,3.1-0.1,5.6,0.9c2.5,1,4.3,1.8,5.4,2.5c1.2,0.7,2.1,1.3,2.8,1.8
		c4-1.1,8.2-1.7,12.5-1.7c4.3,0,8.5,0.6,12.5,1.7l2.5-1.6c1.7-1,3.7-2,6-2.9c2.3-0.9,4.1-1.1,5.3-0.7c2,4.9,2.1,9.3,0.5,13.3
		c3.4,3.7,5.1,8.2,5.1,13.4c0,3.7-0.4,7-1.3,9.8c-0.9,2.8-2,5.1-3.5,6.8c-1.4,1.7-3.2,3.2-5.3,4.3c-2.1,1.2-4.1,2-6.1,2.5
		c-2,0.5-4.2,0.9-6.7,1.2c2.3,2,3.4,5,3.4,9.3v13.8c0,0.8,0.3,1.4,0.8,2c0.5,0.5,1.4,0.7,2.6,0.5c10.1-3.3,18.3-9.4,24.7-18.1
		c6.4-8.7,9.6-18.5,9.6-29.4C100.1,41,97.9,32.6,93.4,24.9L93.4,24.9z M93.4,24.9"/>
</g>
</svg>
