<?xml version="1.0" encoding="utf-8"?>
<!-- Generator: Adobe Illustrator 18.0.0, SVG Export Plug-In . SVG Version: 6.00 Build 0)  -->
<!DOCTYPE svg PUBLIC "-//W3C//DTD SVG 1.1//EN" "http://www.w3.org/Graphics/SVG/1.1/DTD/svg11.dtd">
<svg version="1.1" id="Layer_1" xmlns="http://www.w3.org/2000/svg" xmlns:xlink="http://www.w3.org/1999/xlink" x="0px" y="0px"
	 viewBox="56 31.9 239 96" enable-background="new 56 31.9 239 96" xml:space="preserve">
<g>
	<g>
		<g>
			<defs>
				<rect id="SVGID_1_" x="31.5" y="16" width="289" height="130"/>
			</defs>
			<clipPath id="SVGID_2_">
				<use xlink:href="#SVGID_1_"  overflow="visible"/>
			</clipPath>
			<g clip-path="url(#SVGID_2_)">
				<g>
					<defs>
						<rect id="SVGID_3_" x="31.5" y="16" width="289" height="130"/>
					</defs>
					<defs>
						<rect id="SVGID_4_" x="31.5" y="16" width="289" height="130"/>
					</defs>
					<defs>
						<rect id="SVGID_5_" x="31.5" y="16" width="289" height="130"/>
					</defs>
					<defs>
						<rect id="SVGID_6_" x="31.5" y="16" width="289" height="130"/>
					</defs>
					<defs>
						<rect id="SVGID_7_" x="31.5" y="16" width="289" height="130"/>
					</defs>
					<defs>
						<rect id="SVGID_8_" x="31.5" y="16" width="289" height="130"/>
					</defs>
					<defs>
						<rect id="SVGID_9_" x="31.5" y="16" width="289" height="130"/>
					</defs>
					<defs>
						<rect id="SVGID_10_" x="31.5" y="16" width="289" height="130"/>
					</defs>
					<clipPath id="SVGID_11_">
						<use xlink:href="#SVGID_3_"  overflow="visible"/>
					</clipPath>
					<clipPath id="SVGID_12_" clip-path="url(#SVGID_11_)">
						<use xlink:href="#SVGID_4_"  overflow="visible"/>
					</clipPath>
					<clipPath id="SVGID_13_" clip-path="url(#SVGID_12_)">
						<use xlink:href="#SVGID_5_"  overflow="visible"/>
					</clipPath>
					<clipPath id="SVGID_14_" clip-path="url(#SVGID_13_)">
						<use xlink:href="#SVGID_6_"  overflow="visible"/>
					</clipPath>
					<clipPath id="SVGID_15_" clip-path="url(#SVGID_14_)">
						<use xlink:href="#SVGID_7_"  overflow="visible"/>
					</clipPath>
					<clipPath id="SVGID_16_" clip-path="url(#SVGID_15_)">
						<use xlink:href="#SVGID_8_"  overflow="visible"/>
					</clipPath>
					<clipPath id="SVGID_17_" clip-path="url(#SVGID_16_)">
						<use xlink:href="#SVGID_9_"  overflow="visible"/>
					</clipPath>
					<clipPath id="SVGID_18_" clip-path="url(#SVGID_17_)">
						<use xlink:href="#SVGID_10_"  overflow="visible"/>
					</clipPath>
					<path clip-path="url(#SVGID_18_)" fill="#20BEFF" d="M105.8,103c-0.1,0.2-0.3,0.4-0.7,0.4h-7.9c-0.5,0-0.9-0.2-1.2-0.6L82.7,86
						l-3.7,3.5v12.9c0,0.6-0.3,0.9-0.9,0.9H72c-0.6,0-0.9-0.3-0.9-0.9V43.5c0-0.6,0.3-0.9,0.9-0.9h6.2c0.6,0,0.9,0.3,0.9,0.9v36.3
						l15.7-15.9c0.4-0.4,0.8-0.6,1.2-0.6h8.2c0.4,0,0.6,0.1,0.7,0.4c0.1,0.4,0.1,0.6-0.1,0.8l-16.6,16l17.3,21.5
						C105.8,102.3,105.9,102.6,105.8,103"/>
					<path clip-path="url(#SVGID_18_)" fill="#20BEFF" d="M137.9,103.3h-6.2c-0.7,0-1-0.3-1-0.9v-1.2c-2.6,2-6,2.9-10.1,2.9
						c-3.7,0-7-1.2-9.7-3.5c-2.7-2.4-4-5.4-4-9.1c0-5.8,3.6-9.8,10.9-11.9c2.9-0.8,7.2-1.5,12.9-2.1c0.2-2.2-0.4-4.1-1.7-5.6
						c-1.3-1.5-3.3-2.3-5.8-2.3c-3.3,0-6.7,1.2-10.2,3.6c-0.5,0.3-0.9,0.2-1.2-0.2l-3.2-4.5c-0.3-0.4-0.2-0.8,0.3-1.2
						c4.6-3.2,9.3-4.7,14.3-4.7c3.8,0,7,0.9,9.7,2.7c3.9,2.6,5.9,6.8,5.9,12.6v24.7C138.8,103,138.5,103.3,137.9,103.3 M130.8,84.7
						c-5.8,0.6-9.8,1.4-11.9,2.3c-2.9,1.2-4.2,3-3.9,5.3c0.2,1.3,0.8,2.4,2,3.2c1.1,0.8,2.4,1.3,3.9,1.4c4.2,0.3,7.5-0.8,10-3.3
						V84.7z"/>
					<path clip-path="url(#SVGID_18_)" fill="#20BEFF" d="M175.2,118.8c-3.2,3.4-7.8,5-13.8,5c-3.4,0-6.7-0.9-9.8-2.6
						c-0.7-0.4-1.4-1-2.3-1.7c-0.9-0.7-1.9-1.5-3.1-2.5c-0.4-0.4-0.4-0.8-0.1-1.3l4.2-4.2c0.2-0.2,0.4-0.3,0.7-0.3
						c0.2,0,0.4,0.1,0.6,0.3c3.3,3.3,6.6,5,9.7,5c7.2,0,10.8-3.7,10.8-11.2v-4.6c-2.8,2.3-6.5,3.5-11.1,3.5
						c-5.8,0-10.3-2.2-13.6-6.5c-2.9-3.8-4.3-8.6-4.3-14.4c0-5.5,1.4-10.1,4.1-13.9c3.2-4.6,7.8-6.9,13.6-6.9
						c4.5,0,8.2,1.2,11.2,3.5v-1.8c0-0.6,0.3-0.9,0.9-0.9h6.2c0.6,0,0.9,0.3,0.9,0.9V104C180.1,110.5,178.5,115.4,175.2,118.8
						 M172.1,76c-1.5-3.8-4.9-5.7-10.3-5.7c-7,0-10.4,4.3-10.4,13c0,4.8,1.2,8.3,3.5,10.5c1.7,1.7,4,2.6,6.7,2.6
						c5.6,0,9.1-1.9,10.6-5.7V76z"/>
					<path clip-path="url(#SVGID_18_)" fill="#20BEFF" d="M217.1,118.8c-3.2,3.4-7.8,5-13.8,5c-3.4,0-6.7-0.9-9.8-2.6
						c-0.7-0.4-1.4-1-2.3-1.7c-0.9-0.7-1.9-1.5-3.1-2.5c-0.4-0.4-0.4-0.8-0.1-1.3l4.2-4.2c0.2-0.2,0.4-0.3,0.7-0.3
						c0.2,0,0.4,0.1,0.6,0.3c3.3,3.3,6.6,5,9.7,5c7.2,0,10.8-3.7,10.8-11.2v-4.6c-2.8,2.3-6.5,3.5-11.1,3.5
						c-5.8,0-10.3-2.2-13.6-6.5c-2.9-3.8-4.3-8.6-4.3-14.4c0-5.5,1.4-10.1,4.1-13.9c3.2-4.6,7.8-6.9,13.6-6.9
						c4.5,0,8.2,1.2,11.2,3.5v-1.8c0-0.6,0.3-0.9,0.9-0.9h6.2c0.6,0,0.9,0.3,0.9,0.9V104C222,110.5,220.4,115.4,217.1,118.8
						 M214.1,76c-1.5-3.8-4.9-5.7-10.3-5.7c-7,0-10.4,4.3-10.4,13c0,4.8,1.2,8.3,3.5,10.5c1.7,1.7,4,2.6,6.7,2.6
						c5.6,0,9.1-1.9,10.6-5.7L214.1,76L214.1,76z"/>
					<path clip-path="url(#SVGID_18_)" fill="#20BEFF" d="M235.7,103.3h-6.2c-0.6,0-0.9-0.3-0.9-0.9V43.5c0-0.6,0.3-0.9,0.9-0.9h6.2
						c0.6,0,0.9,0.3,0.9,0.9v58.9C236.6,103,236.3,103.3,235.7,103.3"/>
					<path clip-path="url(#SVGID_18_)" fill="#20BEFF" d="M280.5,85.2c0,0.6-0.3,0.9-0.9,0.9h-29c0.4,2.9,1.6,5.3,3.7,7.3
						c2.4,2.1,5.5,3.1,9.2,3.1c3.3,0,6.2-0.9,8.8-2.8c0.5-0.4,1-0.4,1.3,0l4.2,4.3c0.5,0.5,0.5,0.9,0,1.2c-4.3,3.2-9.2,4.8-14.9,4.8
						c-6.1,0-11.1-2-15.2-6.1c-3.9-4-5.9-9.1-5.9-15.2c0-5.8,1.9-10.8,5.8-14.8c3.6-3.7,8.2-5.5,13.9-5.5c5.4,0,10,1.9,13.6,5.8
						c3.8,4,5.6,9,5.3,15L280.5,85.2z M268.8,72.1c-2-1.8-4.5-2.8-7.3-2.8c-2.7,0-5,0.9-7,2.7c-2,1.8-3.3,4.1-3.8,7h21.5
						C272.1,76.3,271,74,268.8,72.1"/>
					<polygon clip-path="url(#SVGID_18_)" fill="#20BEFF" points="278.6,62.9 281.1,62.9 281.1,63.4 280.1,63.4 280.1,66.1 
						279.6,66.1 279.6,63.4 278.6,63.4 					"/>
					<polygon clip-path="url(#SVGID_18_)" fill="#20BEFF" points="281.5,62.9 282.3,62.9 283.1,65.4 283.1,65.4 284,62.9 
						284.8,62.9 284.8,66.1 284.2,66.1 284.2,63.7 284.2,63.7 283.4,66.1 282.9,66.1 282,63.7 282,63.7 282,66.1 281.5,66.1 					
						"/>
				</g>
			</g>
		</g>
	</g>
</g>
</svg>
