<?xml version="1.0" encoding="utf-8"?>
<!-- Generator: Adobe Illustrator 18.0.0, SVG Export Plug-In . SVG Version: 6.00 Build 0)  -->
<!DOCTYPE svg PUBLIC "-//W3C//DTD SVG 1.1//EN" "http://www.w3.org/Graphics/SVG/1.1/DTD/svg11.dtd">
<svg version="1.1" id="Layer_1" xmlns="http://www.w3.org/2000/svg" xmlns:xlink="http://www.w3.org/1999/xlink" x="0px" y="0px"
	 viewBox="0 0 209 283" enable-background="new 0 0 209 283" xml:space="preserve">
<path fill="#004990" d="M180.2,258.6V24.8c0.9-6.6,2.7-13.1,4.5-19l1.5-5H0l1.5,5c1.7,5.9,3.6,12.4,4.5,19v233.8
	c-0.9,6.6-2.7,13.2-4.5,19.1l-1.5,5h186.2l-1.5-5C182.9,271.8,181.1,265.2,180.2,258.6"/>
<path fill="#FFFFFF" d="M42.6,38.7v62c0,25.9,18.8,41.4,50.2,41.4c31.3,0,50.8-17.1,50.8-44.6V38.7c0-3.9,1.1-7.9,2.1-11.4l0.6-2.1
	h-24l0.6,2.1c1,3.5,2.1,7.5,2.1,11.4v59.5c0,17.3-11.9,27.6-31.9,27.6c-19.5,0-32.2-10.3-32.2-26.3V38.7c0-3.9,1.1-7.9,2.1-11.4
	l0.6-2.1h-24l0.6,2.1C41.5,30.8,42.6,34.8,42.6,38.7"/>
<path fill="#FFFFFF" d="M126.6,256.1l-0.6,2.1h23.6l-0.6-2.1c-1-3.4-2.1-7.3-2.1-11.2l0-104.7L93,213.6l-53.6-73.3l0,104.6
	c0,3.8-1.1,7.8-2.1,11.2l-0.6,2.1h23.6l-0.6-2.1c-1-3.4-2.1-7.3-2.1-11.2l0-52.5l35.4,49.9l35.8-49.9l0,52.4
	C128.7,248.8,127.6,252.7,126.6,256.1"/>
<path fill="#9D9FA2" d="M86.7,156.6c2.9,0,7.8,1.2,7.8,7.9c0,7.7-3.4,14.8-11.9,14.8c-5.1,0-7.9-2.7-7.9-8.1
	C74.8,163.5,78.3,156.6,86.7,156.6 M89.4,164.8c0-2.7-0.9-4.4-3.3-4.4c-5,0-6.1,6.9-6.1,10.8c0,2.5,0.7,4.3,3.3,4.3
	C88.2,175.5,89.4,168.5,89.4,164.8z"/>
<g>
	<defs>
		<rect id="SVGID_1_" y="0.8" width="208.1" height="282.2"/>
	</defs>
	<clipPath id="SVGID_2_">
		<use xlink:href="#SVGID_1_"  overflow="visible"/>
	</clipPath>
	<path clip-path="url(#SVGID_2_)" fill="#9D9FA2" d="M96.6,181l3.6-20.2h-2.9l0.6-3.6h2.9l0.3-1.7c0.7-4.4,2.7-7.6,8.6-7.6
		c2.1,0,4.1,0.6,5.3,1.4l-1.7,3.3c-1.1-0.6-2.4-0.9-3.5-0.9c-2.1,0-3.2,0.9-3.6,3.7l-0.3,1.9h5.9l-0.6,3.6h-5.9l-3.7,20.3
		c-0.7,3.7-1.6,7.4-7.5,7.4c-1.8,0-3.8-0.5-5-1.3l1.7-3.6c0.9,0.5,1.8,0.7,2.8,0.7C95.3,184.3,96.2,183.6,96.6,181"/>
	<polyline clip-path="url(#SVGID_2_)" fill="#004990" points="198.8,274.4 198.8,275.4 195.9,275.4 195.9,283 194.7,283 
		194.7,275.4 191.8,275.4 191.8,274.4 198.8,274.4 	"/>
	<path clip-path="url(#SVGID_2_)" fill="#004990" d="M199.9,274.4h1.7l2.5,7.3l2.5-7.3h1.7v8.6H207v-5.1c0-0.2,0-0.5,0-0.9
		c0-0.4,0-0.8,0-1.3l-2.5,7.3h-1.2l-2.5-7.3v0.3c0,0.2,0,0.5,0,1c0,0.4,0,0.7,0,1v5.1h-1.1V274.4"/>
</g>
</svg>
