<?xml version="1.0" encoding="utf-8"?>
<!-- Generator: Adobe Illustrator 18.0.0, SVG Export Plug-In . SVG Version: 6.00 Build 0)  -->
<!DOCTYPE svg PUBLIC "-//W3C//DTD SVG 1.1//EN" "http://www.w3.org/Graphics/SVG/1.1/DTD/svg11.dtd">
<svg version="1.1" id="Layer_1" xmlns="http://www.w3.org/2000/svg" xmlns:xlink="http://www.w3.org/1999/xlink" x="0px" y="0px"
	 viewBox="0 0 728.1 405.8" enable-background="new 0 0 728.1 405.8" xml:space="preserve">
<path fill="#999999" d="M273.2,351.9c-97.3,3-186.2-36.5-253.6-96.6c54.5,83.1,148.9,147.4,255.3,137.9
	c181-16.1,286.7-194.2,438.7-230.4C561.6,178.8,440,346.7,273.2,351.9z"/>
<path fill="#999999" d="M274.9,302.8c-97.3,3-186.2-36.5-253.6-96.6c54.5,83.1,148.9,147.4,255.3,138
	c181-16.1,286.7-194.2,438.7-230.4C563.3,129.6,441.7,297.6,274.9,302.8z"/>
<path fill="#999999" d="M277,252.3c-97.3,3-186.2-36.5-253.6-96.6C78,238.8,172.4,303.1,278.8,293.6
	c181-16.1,286.7-194.2,438.7-230.4C565.4,79.2,443.8,247.1,277,252.3z"/>
<rect x="152.8" y="70.2" fill="#999999" width="19.2" height="119.6"/>
<rect x="179.5" y="121.9" fill="#999999" width="19.2" height="51.6"/>
<rect x="259.6" y="115.6" fill="#999999" width="19.2" height="64"/>
<rect x="286.3" y="62.2" fill="#999999" width="19.2" height="126.7"/>
<rect x="339.7" y="119.2" fill="#999999" width="19.2" height="56.9"/>
<rect x="366.4" y="131.4" fill="#999999" width="19.2" height="32.5"/>
<rect x="393.1" y="138.2" fill="#999999" width="19.2" height="19"/>
<rect x="313" y="28.8" fill="#999999" width="19.2" height="158"/>
<rect x="446.5" y="143.7" fill="#999999" width="19.2" height="7.8"/>
<rect x="72.7" y="143.7" fill="#999999" width="19.2" height="7.8"/>
<rect x="473.2" y="144.3" fill="#999999" width="19.2" height="6.7"/>
<rect x="46" y="144.3" fill="#999999" width="19.2" height="6.7"/>
<rect x="499.9" y="146.5" fill="#999999" width="19.2" height="2.2"/>
<rect x="19.3" y="146.5" fill="#999999" width="19.2" height="2.2"/>
<rect x="419.8" y="141.5" fill="#999999" width="19.2" height="12.3"/>
<rect x="126.1" y="86.8" fill="#999999" width="19.2" height="95.1"/>
<rect x="99.4" y="122.6" fill="#999999" width="19.2" height="32.5"/>
<rect x="206.2" y="134.8" fill="#999999" width="19.2" height="25.8"/>
<rect x="232.9" y="136.7" fill="#999999" width="19.2" height="21.9"/>
<circle fill="none" stroke="#999999" stroke-width="2" stroke-miterlimit="10" cx="695.4" cy="189.8" r="9.5"/>
<rect x="688.6" y="183.5" fill="none" width="16.3" height="13.9"/>
<text transform="matrix(1 0 0 1 688.6435 196.4178)" stroke="#999999" font-family="'ArialMT'" font-size="18.0291">C</text>
</svg>
