<?xml version="1.0" encoding="utf-8"?>
<!-- Generator: Adobe Illustrator 18.0.0, SVG Export Plug-In . SVG Version: 6.00 Build 0)  -->
<!DOCTYPE svg PUBLIC "-//W3C//DTD SVG 1.1//EN" "http://www.w3.org/Graphics/SVG/1.1/DTD/svg11.dtd">
<svg version="1.1" xmlns="http://www.w3.org/2000/svg" xmlns:xlink="http://www.w3.org/1999/xlink" x="0px" y="0px"
	 viewBox="0 0 85 85" enable-background="new 0 0 85 85" xml:space="preserve">
<g id="Layer_1">
</g>
<g id="ga_x5F_background">
</g>
<g id="GA">
	<g>
		<circle fill="#26A9E0" stroke="#231F20" stroke-width="0.3" stroke-miterlimit="10" cx="29.7" cy="73.5" r="3"/>
		<circle fill="#26A9E0" stroke="#231F20" stroke-width="0.3" stroke-miterlimit="10" cx="29.7" cy="28.9" r="3"/>
		<circle fill="#26A9E0" stroke="#231F20" stroke-width="0.3" stroke-miterlimit="10" cx="29.7" cy="66.1" r="3"/>
		<circle fill="#26A9E0" stroke="#231F20" stroke-width="0.3" stroke-miterlimit="10" cx="29.7" cy="58.6" r="3"/>
		<circle fill="#26A9E0" stroke="#231F20" stroke-width="0.3" stroke-miterlimit="10" cx="29.7" cy="36.4" r="3"/>
		<circle fill="#26A9E0" stroke="#231F20" stroke-width="0.3" stroke-miterlimit="10" cx="29.7" cy="43.8" r="3"/>
		<circle fill="#26A9E0" stroke="#231F20" stroke-width="0.3" stroke-miterlimit="10" cx="29.7" cy="21.5" r="3"/>
		<circle fill="#26A9E0" stroke="#231F20" stroke-width="0.3" stroke-miterlimit="10" cx="29.7" cy="14.1" r="3"/>
		<circle fill="#26A9E0" stroke="#231F20" stroke-width="0.3" stroke-miterlimit="10" cx="29.7" cy="51.2" r="3"/>
		<circle fill="#26A9E0" stroke="#231F20" stroke-width="0.3" stroke-miterlimit="10" cx="43.9" cy="73.5" r="3"/>
		<circle fill="#26A9E0" stroke="#231F20" stroke-width="0.3" stroke-miterlimit="10" cx="43.9" cy="28.9" r="3"/>
		<circle fill="#26A9E0" stroke="#231F20" stroke-width="0.3" stroke-miterlimit="10" cx="43.9" cy="66.1" r="3"/>
		<circle fill="#26A9E0" stroke="#231F20" stroke-width="0.3" stroke-miterlimit="10" cx="43.9" cy="58.6" r="3"/>
		<circle fill="#26A9E0" stroke="#231F20" stroke-width="0.3" stroke-miterlimit="10" cx="43.9" cy="36.4" r="3"/>
		<circle fill="#26A9E0" stroke="#231F20" stroke-width="0.3" stroke-miterlimit="10" cx="43.9" cy="43.8" r="3"/>
		<circle fill="#26A9E0" stroke="#231F20" stroke-width="0.3" stroke-miterlimit="10" cx="43.9" cy="21.5" r="3"/>
		<circle fill="#26A9E0" stroke="#231F20" stroke-width="0.3" stroke-miterlimit="10" cx="43.9" cy="14.1" r="3"/>
		<circle fill="#26A9E0" stroke="#231F20" stroke-width="0.3" stroke-miterlimit="10" cx="43.9" cy="51.2" r="3"/>
		<circle fill="#26A9E0" stroke="#231F20" stroke-width="0.3" stroke-miterlimit="10" cx="58.2" cy="36.3" r="3"/>
		<circle fill="#26A9E0" stroke="#231F20" stroke-width="0.3" stroke-miterlimit="10" cx="58.2" cy="43.8" r="3"/>
		<circle fill="#26A9E0" stroke="#231F20" stroke-width="0.3" stroke-miterlimit="10" cx="58.2" cy="51.2" r="3"/>
		<circle fill="#26A9E0" stroke="#231F20" stroke-width="0.3" stroke-miterlimit="10" cx="15.4" cy="36.3" r="3"/>
		<circle fill="#26A9E0" stroke="#231F20" stroke-width="0.3" stroke-miterlimit="10" cx="15.4" cy="43.8" r="3"/>
		<circle fill="#26A9E0" stroke="#231F20" stroke-width="0.3" stroke-miterlimit="10" cx="15.4" cy="51.2" r="3"/>
		<circle fill="#26A9E0" stroke="#231F20" stroke-width="0.3" stroke-miterlimit="10" cx="72.5" cy="43.8" r="3"/>
		<g>
			<g>
				<line fill="none" stroke="#231F20" stroke-width="0.3" stroke-miterlimit="10" x1="18.3" y1="43.8" x2="26.3" y2="29.7"/>
				<g>
					<path fill="#231F20" d="M26.7,28.9c-0.1,0.4-0.1,1,0,1.5l-0.5-0.6l-0.7-0.1C25.9,29.6,26.3,29.2,26.7,28.9z"/>
				</g>
			</g>
		</g>
		<g>
			<g>
				<line fill="none" stroke="#231F20" stroke-width="0.3" stroke-miterlimit="10" x1="18.4" y1="43.7" x2="26.5" y2="15"/>
				<g>
					<path fill="#231F20" d="M26.7,14.1c0,0.5,0.2,1,0.3,1.4l-0.6-0.4l-0.8,0.1C26,14.9,26.4,14.5,26.7,14.1z"/>
				</g>
			</g>
		</g>
		<g>
			<g>
				<line fill="none" stroke="#231F20" stroke-width="0.3" stroke-miterlimit="10" x1="18.4" y1="43.8" x2="26" y2="50.6"/>
				<g>
					<path fill="#231F20" d="M26.7,51.2c-0.4-0.2-1-0.3-1.4-0.3l0.7-0.4l0.3-0.7C26.3,50.3,26.5,50.8,26.7,51.2z"/>
				</g>
			</g>
		</g>
		<g>
			<g>
				<line fill="none" stroke="#231F20" stroke-width="0.3" stroke-miterlimit="10" x1="18.4" y1="43.8" x2="26.3" y2="57.9"/>
				<g>
					<path fill="#231F20" d="M26.7,58.6c-0.3-0.3-0.8-0.6-1.2-0.8l0.7-0.1l0.5-0.6C26.6,57.6,26.6,58.2,26.7,58.6z"/>
				</g>
			</g>
		</g>
		<line fill="none" stroke="#231F20" stroke-width="0.3" stroke-miterlimit="10" x1="32.8" y1="14.1" x2="41" y2="14.1"/>
		<g>
			<g>
				<line fill="none" stroke="#231F20" stroke-width="0.3" stroke-miterlimit="10" x1="61.2" y1="51.4" x2="68.7" y2="44.6"/>
				<g>
					<path fill="#231F20" d="M69.4,44c-0.2,0.4-0.4,1-0.5,1.4l-0.3-0.7l-0.7-0.4C68.4,44.3,69,44.1,69.4,44z"/>
				</g>
			</g>
		</g>
		<g>
			<g>
				<line fill="none" stroke="#231F20" stroke-width="0.3" stroke-miterlimit="10" x1="61.3" y1="36.7" x2="68.7" y2="43.3"/>
				<g>
					<path fill="#231F20" d="M69.4,44c-0.4-0.2-1-0.3-1.4-0.3l0.7-0.4l0.3-0.7C69,43,69.2,43.6,69.4,44z"/>
				</g>
			</g>
		</g>
		<g>
			<path fill="none" d="M76.6,34.3"/>
		</g>
		<g>
			<g>
				<line fill="none" stroke="#231F20" stroke-width="0.3" stroke-miterlimit="10" x1="18.4" y1="43.8" x2="26" y2="36.9"/>
				<g>
					<path fill="#231F20" d="M26.6,36.3c-0.2,0.4-0.4,1-0.5,1.4L25.9,37l-0.7-0.4C25.6,36.6,26.2,36.5,26.6,36.3z"/>
				</g>
			</g>
		</g>
		<g>
			<path fill="none" d="M76.5,52.9"/>
		</g>
		<g>
			<g>
				<line fill="none" stroke="#231F20" stroke-width="0.3" stroke-miterlimit="10" x1="18.4" y1="43.8" x2="25.8" y2="43.8"/>
				<g>
					<path fill="#231F20" d="M26.7,43.8c-0.4,0.2-1,0.4-1.3,0.7l0.3-0.7l-0.3-0.7C25.7,43.4,26.3,43.7,26.7,43.8z"/>
				</g>
			</g>
		</g>
		<g>
			<g>
				<line fill="none" stroke="#231F20" stroke-width="0.3" stroke-miterlimit="10" x1="18.4" y1="43.8" x2="26.4" y2="22.4"/>
				<g>
					<path fill="#231F20" d="M26.7,21.5c0,0.5,0.1,1,0.2,1.5l-0.6-0.5l-0.8,0C26,22.3,26.4,21.9,26.7,21.5z"/>
				</g>
			</g>
		</g>
		<g>
			<g>
				<line fill="none" stroke="#231F20" stroke-width="0.3" stroke-miterlimit="10" x1="18.4" y1="43.8" x2="26.4" y2="65.2"/>
				<g>
					<path fill="#231F20" d="M26.7,66.1c-0.3-0.3-0.7-0.7-1.1-1l0.8,0l0.6-0.5C26.8,65,26.7,65.6,26.7,66.1z"/>
				</g>
			</g>
		</g>
		<g>
			<g>
				<line fill="none" stroke="#231F20" stroke-width="0.3" stroke-miterlimit="10" x1="18.4" y1="43.8" x2="26.5" y2="72.6"/>
				<g>
					<path fill="#231F20" d="M26.7,73.5c-0.3-0.4-0.7-0.8-1-1l0.8,0.1l0.6-0.4C26.9,72.5,26.7,73,26.7,73.5z"/>
				</g>
			</g>
		</g>
		<line fill="none" stroke="#231F20" stroke-width="0.3" stroke-miterlimit="10" x1="32.8" y1="21.5" x2="41" y2="21.5"/>
		<line fill="none" stroke="#231F20" stroke-width="0.3" stroke-miterlimit="10" x1="32.8" y1="28.9" x2="41" y2="28.9"/>
		<line fill="none" stroke="#231F20" stroke-width="0.3" stroke-miterlimit="10" x1="32.8" y1="36.3" x2="41" y2="36.3"/>
		<line fill="none" stroke="#231F20" stroke-width="0.3" stroke-miterlimit="10" x1="32.8" y1="43.8" x2="41" y2="43.8"/>
		<line fill="none" stroke="#231F20" stroke-width="0.3" stroke-miterlimit="10" x1="32.8" y1="51.1" x2="41" y2="51.1"/>
		<line fill="none" stroke="#231F20" stroke-width="0.3" stroke-miterlimit="10" x1="32.8" y1="58.8" x2="41" y2="58.8"/>
		<line fill="none" stroke="#231F20" stroke-width="0.3" stroke-miterlimit="10" x1="32.6" y1="66.1" x2="41" y2="66.1"/>
		<line fill="none" stroke="#231F20" stroke-width="0.3" stroke-miterlimit="10" x1="32.8" y1="73.7" x2="41" y2="73.7"/>
		<g>
			<g>
				<line fill="none" stroke="#231F20" stroke-width="0.3" stroke-miterlimit="10" x1="18.4" y1="36.3" x2="26" y2="29.5"/>
				<g>
					<path fill="#231F20" d="M26.7,28.9c-0.2,0.4-0.4,1-0.5,1.4l-0.3-0.7l-0.7-0.4C25.7,29.3,26.3,29.1,26.7,28.9z"/>
				</g>
			</g>
		</g>
		<g>
			<g>
				<line fill="none" stroke="#231F20" stroke-width="0.3" stroke-miterlimit="10" x1="18.3" y1="36.3" x2="26.4" y2="14.9"/>
				<g>
					<path fill="#231F20" d="M26.7,14.1c0,0.5,0.1,1,0.2,1.5l-0.6-0.5l-0.8,0C26,14.8,26.4,14.4,26.7,14.1z"/>
				</g>
			</g>
		</g>
		<g>
			<g>
				<line fill="none" stroke="#231F20" stroke-width="0.3" stroke-miterlimit="10" x1="18.4" y1="36.3" x2="25.7" y2="36.3"/>
				<g>
					<path fill="#231F20" d="M26.6,36.3c-0.4,0.2-1,0.4-1.3,0.7l0.3-0.7l-0.3-0.7C25.7,35.9,26.2,36.1,26.6,36.3z"/>
				</g>
			</g>
		</g>
		<g>
			<g>
				<line fill="none" stroke="#231F20" stroke-width="0.3" stroke-miterlimit="10" x1="18.4" y1="36.3" x2="26.3" y2="22.3"/>
				<g>
					<path fill="#231F20" d="M26.7,21.5c-0.1,0.4-0.1,1,0,1.5l-0.5-0.6l-0.7-0.1C25.9,22.1,26.3,21.8,26.7,21.5z"/>
				</g>
			</g>
		</g>
		<g>
			<g>
				<line fill="none" stroke="#231F20" stroke-width="0.3" stroke-miterlimit="10" x1="4" y1="36.2" x2="11.3" y2="36.2"/>
				<g>
					<path fill="#231F20" d="M12.2,36.2c-0.4,0.2-1,0.4-1.3,0.7l0.3-0.7L11,35.5C11.3,35.7,11.8,36,12.2,36.2z"/>
				</g>
			</g>
		</g>
		<g>
			<g>
				<line fill="none" stroke="#231F20" stroke-width="0.3" stroke-miterlimit="10" x1="4" y1="43.6" x2="11.3" y2="43.6"/>
				<g>
					<path fill="#231F20" d="M12.2,43.6c-0.4,0.2-1,0.4-1.3,0.7l0.3-0.7L11,42.9C11.3,43.2,11.8,43.4,12.2,43.6z"/>
				</g>
			</g>
		</g>
		<g>
			<g>
				<line fill="none" stroke="#231F20" stroke-width="0.3" stroke-miterlimit="10" x1="4" y1="51" x2="11.3" y2="51"/>
				<g>
					<path fill="#231F20" d="M12.2,51c-0.4,0.2-1,0.4-1.3,0.7l0.3-0.7L11,50.3C11.3,50.6,11.8,50.9,12.2,51z"/>
				</g>
			</g>
		</g>
		<g>
			<g>
				<line fill="none" stroke="#231F20" stroke-width="0.3" stroke-miterlimit="10" x1="46.9" y1="36.5" x2="54.4" y2="36.5"/>
				<g>
					<path fill="#231F20" d="M55.3,36.5c-0.4,0.2-1,0.4-1.3,0.7l0.3-0.7L54,35.8C54.4,36.1,54.9,36.4,55.3,36.5z"/>
				</g>
			</g>
		</g>
		<g>
			<g>
				<line fill="none" stroke="#231F20" stroke-width="0.3" stroke-miterlimit="10" x1="47.1" y1="44" x2="54.4" y2="44"/>
				<g>
					<path fill="#231F20" d="M55.3,44c-0.4,0.2-1,0.4-1.3,0.7l0.3-0.7L54,43.2C54.4,43.5,54.9,43.8,55.3,44z"/>
				</g>
			</g>
		</g>
		<g>
			<g>
				<line fill="none" stroke="#231F20" stroke-width="0.3" stroke-miterlimit="10" x1="46.9" y1="51.4" x2="54.4" y2="51.4"/>
				<g>
					<path fill="#231F20" d="M55.3,51.4c-0.4,0.2-1,0.4-1.3,0.7l0.3-0.7L54,50.7C54.4,51,54.9,51.2,55.3,51.4z"/>
				</g>
			</g>
		</g>
		<g>
			<g>
				<line fill="none" stroke="#231F20" stroke-width="0.3" stroke-miterlimit="10" x1="61.2" y1="44" x2="68.5" y2="44"/>
				<g>
					<path fill="#231F20" d="M69.4,44c-0.4,0.2-1,0.4-1.3,0.7l0.3-0.7l-0.3-0.7C68.4,43.5,69,43.8,69.4,44z"/>
				</g>
			</g>
		</g>
		<g>
			<g>
				<line fill="none" stroke="#231F20" stroke-width="0.3" stroke-miterlimit="10" x1="18.4" y1="36.3" x2="26" y2="43.2"/>
				<g>
					<path fill="#231F20" d="M26.7,43.8c-0.4-0.2-1-0.3-1.4-0.3l0.7-0.4l0.3-0.7C26.3,42.8,26.5,43.4,26.7,43.8z"/>
				</g>
			</g>
		</g>
		<g>
			<g>
				<line fill="none" stroke="#231F20" stroke-width="0.3" stroke-miterlimit="10" x1="18.4" y1="36.3" x2="26.3" y2="50.4"/>
				<g>
					<path fill="#231F20" d="M26.7,51.2c-0.3-0.3-0.8-0.6-1.2-0.8l0.7-0.1l0.5-0.6C26.6,50.2,26.6,50.8,26.7,51.2z"/>
				</g>
			</g>
		</g>
		<g>
			<g>
				<line fill="none" stroke="#231F20" stroke-width="0.3" stroke-miterlimit="10" x1="18.4" y1="36.3" x2="26.4" y2="57.8"/>
				<g>
					<path fill="#231F20" d="M26.7,58.6c-0.3-0.3-0.7-0.7-1.1-1l0.8,0l0.6-0.5C26.8,57.6,26.7,58.2,26.7,58.6z"/>
				</g>
			</g>
		</g>
		<g>
			<g>
				<line fill="none" stroke="#231F20" stroke-width="0.3" stroke-miterlimit="10" x1="18.4" y1="36.2" x2="26.3" y2="64.8"/>
				<g>
					<path fill="#231F20" d="M26.6,65.7c-0.3-0.4-0.7-0.8-1-1l0.8,0.1l0.6-0.4C26.7,64.7,26.6,65.3,26.6,65.7z"/>
				</g>
			</g>
		</g>
		<g>
			<g>
				<line fill="none" stroke="#231F20" stroke-width="0.3" stroke-miterlimit="10" x1="18.4" y1="36.3" x2="26.5" y2="72.6"/>
				<g>
					<path fill="#231F20" d="M26.7,73.5c-0.2-0.4-0.6-0.8-1-1.1l0.8,0.1l0.6-0.4C26.9,72.5,26.8,73,26.7,73.5z"/>
				</g>
			</g>
		</g>
		<g>
			<g>
				<line fill="none" stroke="#231F20" stroke-width="0.3" stroke-miterlimit="10" x1="18.4" y1="51.3" x2="26" y2="58"/>
				<g>
					<path fill="#231F20" d="M26.7,58.6c-0.4-0.2-1-0.3-1.4-0.3l0.7-0.4l0.3-0.7C26.3,57.7,26.5,58.2,26.7,58.6z"/>
				</g>
			</g>
		</g>
		<g>
			<g>
				<line fill="none" stroke="#231F20" stroke-width="0.3" stroke-miterlimit="10" x1="18.4" y1="51.4" x2="26.4" y2="72.6"/>
				<g>
					<path fill="#231F20" d="M26.7,73.5c-0.3-0.3-0.7-0.7-1.1-0.9l0.8,0l0.6-0.5C26.8,72.4,26.7,73,26.7,73.5z"/>
				</g>
			</g>
		</g>
		<g>
			<g>
				<line fill="none" stroke="#231F20" stroke-width="0.3" stroke-miterlimit="10" x1="18.4" y1="51.4" x2="25.8" y2="51.3"/>
				<g>
					<path fill="#231F20" d="M26.7,51.3c-0.4,0.2-1,0.4-1.3,0.7l0.3-0.7l-0.3-0.7C25.7,50.9,26.3,51.2,26.7,51.3z"/>
				</g>
			</g>
		</g>
		<g>
			<g>
				<line fill="none" stroke="#231F20" stroke-width="0.3" stroke-miterlimit="10" x1="18.4" y1="51.3" x2="26.3" y2="65.3"/>
				<g>
					<path fill="#231F20" d="M26.7,66.1c-0.3-0.3-0.8-0.6-1.3-0.8l0.7-0.1l0.5-0.6C26.6,65,26.6,65.6,26.7,66.1z"/>
				</g>
			</g>
		</g>
		<g>
			<g>
				<line fill="none" stroke="#231F20" stroke-width="0.3" stroke-miterlimit="10" x1="18.3" y1="51.4" x2="26" y2="44.4"/>
				<g>
					<path fill="#231F20" d="M26.7,43.8c-0.2,0.4-0.4,1-0.5,1.4l-0.3-0.7l-0.7-0.4C25.7,44.1,26.3,44,26.7,43.8z"/>
				</g>
			</g>
		</g>
		<g>
			<g>
				<line fill="none" stroke="#231F20" stroke-width="0.3" stroke-miterlimit="10" x1="18.3" y1="51.4" x2="26.2" y2="37.1"/>
				<g>
					<path fill="#231F20" d="M26.6,36.3c-0.1,0.4-0.1,1,0,1.5l-0.5-0.6l-0.7-0.1C25.8,36.9,26.3,36.6,26.6,36.3z"/>
				</g>
			</g>
		</g>
		<g>
			<g>
				<line fill="none" stroke="#231F20" stroke-width="0.3" stroke-miterlimit="10" x1="18.3" y1="51.2" x2="26.4" y2="29.8"/>
				<g>
					<path fill="#231F20" d="M26.7,28.9c0,0.5,0.1,1,0.2,1.5l-0.6-0.5l-0.8,0C26,29.7,26.4,29.3,26.7,28.9z"/>
				</g>
			</g>
		</g>
		<g>
			<g>
				<line fill="none" stroke="#231F20" stroke-width="0.3" stroke-miterlimit="10" x1="18.3" y1="51.4" x2="26.5" y2="22.4"/>
				<g>
					<path fill="#231F20" d="M26.7,21.5c0,0.5,0.2,1,0.3,1.4l-0.6-0.4l-0.8,0.1C26,22.3,26.4,21.9,26.7,21.5z"/>
				</g>
			</g>
		</g>
		<g>
			<g>
				<line fill="none" stroke="#231F20" stroke-width="0.3" stroke-miterlimit="10" x1="18.3" y1="51.4" x2="26.5" y2="15.4"/>
				<g>
					<path fill="#231F20" d="M26.7,14.5c0.1,0.5,0.2,1,0.4,1.4l-0.6-0.4l-0.8,0.1C26.1,15.3,26.5,14.9,26.7,14.5z"/>
				</g>
			</g>
		</g>
		<g>
			<g>
				<line fill="none" stroke="#231F20" stroke-width="0.3" stroke-miterlimit="10" x1="54.9" y1="43.2" x2="46.9" y2="29"/>
				<g>
					<path fill="#231F20" d="M55.4,44c-0.1-0.4-0.1-1,0-1.5l-0.5,0.6l-0.7,0.1C54.5,43.4,55,43.7,55.4,44z"/>
				</g>
			</g>
		</g>
		<g>
			<g>
				<line fill="none" stroke="#231F20" stroke-width="0.3" stroke-miterlimit="10" x1="55.1" y1="43.1" x2="47" y2="14.3"/>
				<g>
					<path fill="#231F20" d="M55.3,44c0-0.5,0.2-1,0.3-1.4L55,43l-0.8-0.1C54.6,43.2,55,43.6,55.3,44z"/>
				</g>
			</g>
		</g>
		<g>
			<g>
				<line fill="none" stroke="#231F20" stroke-width="0.3" stroke-miterlimit="10" x1="54.7" y1="44.7" x2="46.9" y2="51.4"/>
				<g>
					<path fill="#231F20" d="M55.4,44.1c-0.4,0.2-1,0.3-1.4,0.3l0.7,0.4l0.3,0.7C54.9,45,55.1,44.5,55.4,44.1z"/>
				</g>
			</g>
		</g>
		<g>
			<g>
				<line fill="none" stroke="#231F20" stroke-width="0.3" stroke-miterlimit="10" x1="54.9" y1="44.8" x2="47" y2="58.9"/>
				<g>
					<path fill="#231F20" d="M55.3,44.1c-0.3,0.3-0.8,0.6-1.2,0.8l0.7,0.1l0.5,0.6C55.2,45.1,55.3,44.5,55.3,44.1z"/>
				</g>
			</g>
		</g>
		<g>
			<g>
				<line fill="none" stroke="#231F20" stroke-width="0.3" stroke-miterlimit="10" x1="54.7" y1="43.4" x2="47" y2="36.5"/>
				<g>
					<path fill="#231F20" d="M55.3,44.1c-0.2-0.4-0.4-1-0.5-1.4l-0.3,0.7l-0.7,0.4C54.3,43.7,54.9,43.9,55.3,44.1z"/>
				</g>
			</g>
		</g>
		<g>
			<g>
				<line fill="none" stroke="#231F20" stroke-width="0.3" stroke-miterlimit="10" x1="55" y1="43.2" x2="47" y2="21.8"/>
				<g>
					<path fill="#231F20" d="M55.3,44.1c0-0.5,0.1-1,0.2-1.5L55,43.1l-0.8,0C54.6,43.3,55,43.7,55.3,44.1z"/>
				</g>
			</g>
		</g>
		<g>
			<g>
				<line fill="none" stroke="#231F20" stroke-width="0.3" stroke-miterlimit="10" x1="55" y1="44.9" x2="47" y2="66.3"/>
				<g>
					<path fill="#231F20" d="M55.3,44.1c-0.3,0.3-0.7,0.7-1.1,1l0.8,0l0.6,0.5C55.4,45.1,55.3,44.5,55.3,44.1z"/>
				</g>
			</g>
		</g>
		<g>
			<g>
				<line fill="none" stroke="#231F20" stroke-width="0.3" stroke-miterlimit="10" x1="55.1" y1="44.9" x2="47" y2="73.7"/>
				<g>
					<path fill="#231F20" d="M55.3,44.1c-0.3,0.4-0.7,0.8-1,1l0.8-0.1l0.6,0.4C55.5,45.1,55.4,44.5,55.3,44.1z"/>
				</g>
			</g>
		</g>
		<g>
			<g>
				<line fill="none" stroke="#231F20" stroke-width="0.3" stroke-miterlimit="10" x1="54.7" y1="35.9" x2="46.9" y2="28.9"/>
				<g>
					<path fill="#231F20" d="M55.3,36.5c-0.2-0.4-0.4-1-0.5-1.4l-0.3,0.7l-0.7,0.4C54.3,36.2,54.9,36.4,55.3,36.5z"/>
				</g>
			</g>
		</g>
		<g>
			<g>
				<line fill="none" stroke="#231F20" stroke-width="0.3" stroke-miterlimit="10" x1="55.1" y1="35.7" x2="47" y2="14.3"/>
				<g>
					<path fill="#231F20" d="M55.4,36.6c0-0.5,0.1-1,0.2-1.5L55,35.6l-0.8,0C54.6,35.8,55.1,36.2,55.4,36.6z"/>
				</g>
			</g>
		</g>
		<g>
			<g>
				<line fill="none" stroke="#231F20" stroke-width="0.3" stroke-miterlimit="10" x1="54.9" y1="35.7" x2="47" y2="21.8"/>
				<g>
					<path fill="#231F20" d="M55.3,36.5c-0.1-0.4-0.1-1,0-1.5l-0.5,0.6l-0.7,0.1C54.5,35.9,55,36.2,55.3,36.5z"/>
				</g>
			</g>
		</g>
		<g>
			<g>
				<line fill="none" stroke="#231F20" stroke-width="0.3" stroke-miterlimit="10" x1="54.7" y1="37.1" x2="47" y2="44"/>
				<g>
					<path fill="#231F20" d="M55.3,36.5c-0.4,0.2-1,0.3-1.4,0.3l0.7,0.4l0.3,0.7C54.9,37.5,55.1,36.9,55.3,36.5z"/>
				</g>
			</g>
		</g>
		<g>
			<g>
				<line fill="none" stroke="#231F20" stroke-width="0.3" stroke-miterlimit="10" x1="54.9" y1="37.3" x2="46.9" y2="51.4"/>
				<g>
					<path fill="#231F20" d="M55.3,36.5c-0.3,0.3-0.8,0.6-1.3,0.8l0.7,0.1l0.5,0.6C55.2,37.6,55.3,37,55.3,36.5z"/>
				</g>
			</g>
		</g>
		<g>
			<g>
				<line fill="none" stroke="#231F20" stroke-width="0.3" stroke-miterlimit="10" x1="55" y1="37.4" x2="47" y2="58.9"/>
				<g>
					<path fill="#231F20" d="M55.3,36.5c-0.3,0.3-0.7,0.7-1.1,1l0.8,0l0.6,0.5C55.4,37.6,55.3,37,55.3,36.5z"/>
				</g>
			</g>
		</g>
		<g>
			<g>
				<line fill="none" stroke="#231F20" stroke-width="0.3" stroke-miterlimit="10" x1="55.1" y1="37.4" x2="47.1" y2="65.9"/>
				<g>
					<path fill="#231F20" d="M55.3,36.5c-0.3,0.4-0.7,0.8-1,1l0.8-0.1l0.6,0.4C55.5,37.5,55.4,36.9,55.3,36.5z"/>
				</g>
			</g>
		</g>
		<g>
			<g>
				<line fill="none" stroke="#231F20" stroke-width="0.3" stroke-miterlimit="10" x1="55.1" y1="37.4" x2="47" y2="73.7"/>
				<g>
					<path fill="#231F20" d="M55.3,36.5c-0.2,0.4-0.6,0.8-1,1.1l0.8-0.1l0.6,0.4C55.5,37.6,55.4,37,55.3,36.5z"/>
				</g>
			</g>
		</g>
		<g>
			<g>
				<line fill="none" stroke="#231F20" stroke-width="0.3" stroke-miterlimit="10" x1="54.7" y1="52.2" x2="47" y2="58.9"/>
				<g>
					<path fill="#231F20" d="M55.3,51.6c-0.4,0.2-1,0.3-1.4,0.3l0.7,0.4l0.3,0.7C54.9,52.5,55.1,52,55.3,51.6z"/>
				</g>
			</g>
		</g>
		<g>
			<g>
				<line fill="none" stroke="#231F20" stroke-width="0.3" stroke-miterlimit="10" x1="55" y1="52.5" x2="47" y2="73.7"/>
				<g>
					<path fill="#231F20" d="M55.3,51.6c-0.3,0.3-0.7,0.7-1.1,0.9l0.8,0l0.6,0.5C55.4,52.7,55.3,52.1,55.3,51.6z"/>
				</g>
			</g>
		</g>
		<g>
			<g>
				<line fill="none" stroke="#231F20" stroke-width="0.3" stroke-miterlimit="10" x1="54.9" y1="52.4" x2="47" y2="66.3"/>
				<g>
					<path fill="#231F20" d="M55.3,51.6c-0.3,0.3-0.8,0.6-1.3,0.8l0.7,0.1l0.5,0.6C55.2,52.6,55.3,52,55.3,51.6z"/>
				</g>
			</g>
		</g>
		<g>
			<g>
				<line fill="none" stroke="#231F20" stroke-width="0.3" stroke-miterlimit="10" x1="54.7" y1="51" x2="47" y2="44"/>
				<g>
					<path fill="#231F20" d="M55.4,51.6c-0.2-0.4-0.4-1-0.5-1.4l-0.3,0.7L54,51.3C54.4,51.3,55,51.5,55.4,51.6z"/>
				</g>
			</g>
		</g>
		<g>
			<g>
				<line fill="none" stroke="#231F20" stroke-width="0.3" stroke-miterlimit="10" x1="55" y1="50.8" x2="46.9" y2="36.5"/>
				<g>
					<path fill="#231F20" d="M55.4,51.6c-0.1-0.4-0.1-1,0-1.5l-0.5,0.6l-0.7,0.1C54.6,51,55.1,51.3,55.4,51.6z"/>
				</g>
			</g>
		</g>
		<g>
			<g>
				<line fill="none" stroke="#231F20" stroke-width="0.3" stroke-miterlimit="10" x1="55.1" y1="50.6" x2="46.9" y2="29"/>
				<g>
					<path fill="#231F20" d="M55.4,51.5c0-0.5,0.1-1,0.2-1.5L55,50.5l-0.8,0C54.7,50.7,55.1,51.1,55.4,51.5z"/>
				</g>
			</g>
		</g>
		<g>
			<g>
				<line fill="none" stroke="#231F20" stroke-width="0.3" stroke-miterlimit="10" x1="55.2" y1="50.7" x2="47" y2="21.8"/>
				<g>
					<path fill="#231F20" d="M55.4,51.6c0-0.5,0.2-1,0.3-1.4l-0.6,0.4l-0.8-0.1C54.7,50.8,55.1,51.3,55.4,51.6z"/>
				</g>
			</g>
		</g>
		<g>
			<g>
				<line fill="none" stroke="#231F20" stroke-width="0.3" stroke-miterlimit="10" x1="55.2" y1="50.7" x2="47" y2="14.7"/>
				<g>
					<path fill="#231F20" d="M55.4,51.6c0.1-0.5,0.2-1,0.4-1.4l-0.6,0.4l-0.8-0.1C54.8,50.8,55.1,51.2,55.4,51.6z"/>
				</g>
			</g>
		</g>
		<line fill="none" stroke="#231F20" stroke-width="0.3" stroke-miterlimit="10" x1="32.6" y1="14.1" x2="41" y2="21.5"/>
		<line fill="none" stroke="#231F20" stroke-width="0.3" stroke-miterlimit="10" x1="32.6" y1="14.1" x2="41" y2="28.9"/>
		<line fill="none" stroke="#231F20" stroke-width="0.3" stroke-miterlimit="10" x1="32.6" y1="14.1" x2="41" y2="36.4"/>
		<line fill="none" stroke="#231F20" stroke-width="0.3" stroke-miterlimit="10" x1="32.7" y1="14.1" x2="41" y2="43.8"/>
		<line fill="none" stroke="#231F20" stroke-width="0.3" stroke-miterlimit="10" x1="32.6" y1="14.1" x2="41" y2="51.2"/>
		<line fill="none" stroke="#231F20" stroke-width="0.3" stroke-miterlimit="10" x1="32.6" y1="14.1" x2="41" y2="58.8"/>
		<line fill="none" stroke="#231F20" stroke-width="0.3" stroke-miterlimit="10" x1="32.6" y1="14.1" x2="41" y2="66.1"/>
		<line fill="none" stroke="#231F20" stroke-width="0.3" stroke-miterlimit="10" x1="32.6" y1="14.1" x2="41" y2="73.7"/>
		<line fill="none" stroke="#231F20" stroke-width="0.3" stroke-miterlimit="10" x1="32.7" y1="21.5" x2="41.1" y2="29"/>
		<line fill="none" stroke="#231F20" stroke-width="0.3" stroke-miterlimit="10" x1="32.7" y1="21.4" x2="40.9" y2="36.3"/>
		<line fill="none" stroke="#231F20" stroke-width="0.3" stroke-miterlimit="10" x1="32.7" y1="21.4" x2="41" y2="43.8"/>
		<line fill="none" stroke="#231F20" stroke-width="0.3" stroke-miterlimit="10" x1="32.7" y1="21.4" x2="40.9" y2="51.1"/>
		<line fill="none" stroke="#231F20" stroke-width="0.3" stroke-miterlimit="10" x1="32.7" y1="21.4" x2="41" y2="58.8"/>
		<line fill="none" stroke="#231F20" stroke-width="0.3" stroke-miterlimit="10" x1="32.7" y1="21.4" x2="41.1" y2="66.2"/>
		<line fill="none" stroke="#231F20" stroke-width="0.3" stroke-miterlimit="10" x1="32.7" y1="21.4" x2="40.9" y2="73.4"/>
		<line fill="none" stroke="#231F20" stroke-width="0.3" stroke-miterlimit="10" x1="32.6" y1="21.5" x2="41" y2="14.1"/>
		<line fill="none" stroke="#231F20" stroke-width="0.3" stroke-miterlimit="10" x1="32.7" y1="28.9" x2="41.1" y2="36.3"/>
		<line fill="none" stroke="#231F20" stroke-width="0.3" stroke-miterlimit="10" x1="32.7" y1="28.9" x2="41" y2="43.8"/>
		<line fill="none" stroke="#231F20" stroke-width="0.3" stroke-miterlimit="10" x1="32.7" y1="28.9" x2="41" y2="51.2"/>
		<line fill="none" stroke="#231F20" stroke-width="0.3" stroke-miterlimit="10" x1="32.6" y1="28.9" x2="40.9" y2="58.8"/>
		<line fill="none" stroke="#231F20" stroke-width="0.3" stroke-miterlimit="10" x1="32.7" y1="28.9" x2="41" y2="66.1"/>
		<line fill="none" stroke="#231F20" stroke-width="0.3" stroke-miterlimit="10" x1="32.7" y1="28.9" x2="41" y2="73.7"/>
		<g>
			<path fill="none" d="M32.7,28.9"/>
		</g>
		<g>
			<path fill="none" d="M32.7,28.9"/>
		</g>
		<line fill="none" stroke="#231F20" stroke-width="0.3" stroke-miterlimit="10" x1="32.6" y1="28.9" x2="40.9" y2="21.6"/>
		<line fill="none" stroke="#231F20" stroke-width="0.3" stroke-miterlimit="10" x1="32.7" y1="28.9" x2="41" y2="14.1"/>
		<line fill="none" stroke="#231F20" stroke-width="0.3" stroke-miterlimit="10" x1="32.8" y1="36.3" x2="41" y2="43.8"/>
		<line fill="none" stroke="#231F20" stroke-width="0.3" stroke-miterlimit="10" x1="32.6" y1="36.3" x2="41" y2="51.1"/>
		<line fill="none" stroke="#231F20" stroke-width="0.3" stroke-miterlimit="10" x1="32.8" y1="36.3" x2="41" y2="58.8"/>
		<line fill="none" stroke="#231F20" stroke-width="0.3" stroke-miterlimit="10" x1="32.7" y1="36.3" x2="41" y2="66.1"/>
		<line fill="none" stroke="#231F20" stroke-width="0.3" stroke-miterlimit="10" x1="32.7" y1="36.4" x2="41" y2="73.7"/>
		<g>
			<path fill="none" d="M32.8,36.3"/>
		</g>
		<g>
			<path fill="none" d="M32.8,36.3"/>
		</g>
		<g>
			<path fill="none" d="M32.8,36.3"/>
		</g>
		<line fill="none" stroke="#231F20" stroke-width="0.3" stroke-miterlimit="10" x1="32.8" y1="36.3" x2="41" y2="28.9"/>
		<line fill="none" stroke="#231F20" stroke-width="0.3" stroke-miterlimit="10" x1="32.8" y1="36.3" x2="41" y2="21.5"/>
		<line fill="none" stroke="#231F20" stroke-width="0.3" stroke-miterlimit="10" x1="32.7" y1="36.3" x2="40.9" y2="14.1"/>
		<line fill="none" stroke="#231F20" stroke-width="0.3" stroke-miterlimit="10" x1="32.8" y1="73.7" x2="41" y2="66.1"/>
		<line fill="none" stroke="#231F20" stroke-width="0.3" stroke-miterlimit="10" x1="32.8" y1="73.7" x2="41" y2="58.8"/>
		<line fill="none" stroke="#231F20" stroke-width="0.3" stroke-miterlimit="10" x1="32.8" y1="73.7" x2="41" y2="51.1"/>
		<line fill="none" stroke="#231F20" stroke-width="0.3" stroke-miterlimit="10" x1="32.8" y1="73.7" x2="41" y2="43.8"/>
		<line fill="none" stroke="#231F20" stroke-width="0.3" stroke-miterlimit="10" x1="32.8" y1="73.7" x2="40.9" y2="36.3"/>
		<line fill="none" stroke="#231F20" stroke-width="0.3" stroke-miterlimit="10" x1="32.8" y1="73.7" x2="41" y2="28.9"/>
		<line fill="none" stroke="#231F20" stroke-width="0.3" stroke-miterlimit="10" x1="32.8" y1="73.7" x2="40.9" y2="21.9"/>
		<line fill="none" stroke="#231F20" stroke-width="0.3" stroke-miterlimit="10" x1="32.8" y1="73.7" x2="40.9" y2="14.1"/>
		<g>
			<path fill="none" d="M41.1,65.8"/>
		</g>
		<g>
			<path fill="none" d="M32.9,65.8"/>
		</g>
		<line fill="none" stroke="#231F20" stroke-width="0.3" stroke-miterlimit="10" x1="32.6" y1="66.1" x2="40.9" y2="58.8"/>
		<line fill="none" stroke="#231F20" stroke-width="0.3" stroke-miterlimit="10" x1="32.7" y1="65.8" x2="41" y2="51.1"/>
		<line fill="none" stroke="#231F20" stroke-width="0.3" stroke-miterlimit="10" x1="32.6" y1="66.1" x2="41" y2="43.8"/>
		<line fill="none" stroke="#231F20" stroke-width="0.3" stroke-miterlimit="10" x1="32.8" y1="65.9" x2="40.9" y2="36.3"/>
		<line fill="none" stroke="#231F20" stroke-width="0.3" stroke-miterlimit="10" x1="32.6" y1="66.1" x2="41" y2="28.9"/>
		<line fill="none" stroke="#231F20" stroke-width="0.3" stroke-miterlimit="10" x1="32.6" y1="66.1" x2="41" y2="21.5"/>
		<line fill="none" stroke="#231F20" stroke-width="0.3" stroke-miterlimit="10" x1="32.6" y1="66.1" x2="41" y2="13.9"/>
		<line fill="none" stroke="#231F20" stroke-width="0.3" stroke-miterlimit="10" x1="32.7" y1="66.2" x2="41" y2="73.7"/>
		<g>
			<path fill="none" d="M40.9,51.2"/>
		</g>
		<g>
			<path fill="none" d="M32.7,51.2"/>
		</g>
		<line fill="none" stroke="#231F20" stroke-width="0.3" stroke-miterlimit="10" x1="32.7" y1="51.3" x2="41" y2="43.8"/>
		<line fill="none" stroke="#231F20" stroke-width="0.3" stroke-miterlimit="10" x1="32.7" y1="51.3" x2="41.1" y2="36.5"/>
		<line fill="none" stroke="#231F20" stroke-width="0.3" stroke-miterlimit="10" x1="32.7" y1="51.3" x2="41.1" y2="29"/>
		<line fill="none" stroke="#231F20" stroke-width="0.3" stroke-miterlimit="10" x1="32.7" y1="51.3" x2="41" y2="21.5"/>
		<line fill="none" stroke="#231F20" stroke-width="0.3" stroke-miterlimit="10" x1="32.7" y1="51.3" x2="41" y2="14.1"/>
		<line fill="none" stroke="#231F20" stroke-width="0.3" stroke-miterlimit="10" x1="32.7" y1="51.3" x2="41" y2="58.8"/>
		<line fill="none" stroke="#231F20" stroke-width="0.3" stroke-miterlimit="10" x1="32.7" y1="51.2" x2="40.9" y2="66.1"/>
		<line fill="none" stroke="#231F20" stroke-width="0.3" stroke-miterlimit="10" x1="32.6" y1="51.2" x2="40.9" y2="73.5"/>
		<g>
			<path fill="none" d="M41.2,58.9"/>
		</g>
		<g>
			<path fill="none" d="M33,58.9"/>
		</g>
		<line fill="none" stroke="#231F20" stroke-width="0.3" stroke-miterlimit="10" x1="32.7" y1="58.9" x2="41" y2="51.1"/>
		<line fill="none" stroke="#231F20" stroke-width="0.3" stroke-miterlimit="10" x1="32.7" y1="58.9" x2="41" y2="43.8"/>
		<line fill="none" stroke="#231F20" stroke-width="0.3" stroke-miterlimit="10" x1="32.8" y1="58.8" x2="40.9" y2="36.3"/>
		<line fill="none" stroke="#231F20" stroke-width="0.3" stroke-miterlimit="10" x1="32.7" y1="58.9" x2="41" y2="28.9"/>
		<line fill="none" stroke="#231F20" stroke-width="0.3" stroke-miterlimit="10" x1="32.8" y1="58.8" x2="41" y2="21.5"/>
		<line fill="none" stroke="#231F20" stroke-width="0.3" stroke-miterlimit="10" x1="32.8" y1="58.8" x2="40.9" y2="14.1"/>
		<line fill="none" stroke="#231F20" stroke-width="0.3" stroke-miterlimit="10" x1="32.7" y1="58.8" x2="41" y2="66.1"/>
		<line fill="none" stroke="#231F20" stroke-width="0.3" stroke-miterlimit="10" x1="32.8" y1="58.9" x2="41" y2="73.7"/>
		<g>
			<g>
				<line fill="none" stroke="#231F20" stroke-width="0.3" stroke-miterlimit="10" x1="75.8" y1="43.8" x2="83.1" y2="43.8"/>
				<g>
					<path fill="#231F20" d="M84,43.8c-0.4,0.2-1,0.4-1.3,0.7l0.3-0.7l-0.3-0.7C83.1,43.4,83.6,43.7,84,43.8z"/>
				</g>
			</g>
		</g>
		<line fill="none" stroke="#231F20" stroke-width="0.3" stroke-miterlimit="10" x1="32.8" y1="43.8" x2="41" y2="36.3"/>
		<line fill="none" stroke="#231F20" stroke-width="0.3" stroke-miterlimit="10" x1="32.8" y1="43.8" x2="40.9" y2="29"/>
		<line fill="none" stroke="#231F20" stroke-width="0.3" stroke-miterlimit="10" x1="32.8" y1="43.8" x2="41" y2="21.5"/>
		<line fill="none" stroke="#231F20" stroke-width="0.3" stroke-miterlimit="10" x1="32.7" y1="43.8" x2="41.1" y2="14"/>
		<line fill="none" stroke="#231F20" stroke-width="0.3" stroke-miterlimit="10" x1="32.8" y1="43.8" x2="41" y2="14.1"/>
		<line fill="none" stroke="#231F20" stroke-width="0.3" stroke-miterlimit="10" x1="32.8" y1="43.8" x2="41" y2="51.4"/>
		<line fill="none" stroke="#231F20" stroke-width="0.3" stroke-miterlimit="10" x1="32.7" y1="43.8" x2="41" y2="58.6"/>
		<line fill="none" stroke="#231F20" stroke-width="0.3" stroke-miterlimit="10" x1="32.7" y1="43.8" x2="40.9" y2="66"/>
		<line fill="none" stroke="#231F20" stroke-width="0.3" stroke-miterlimit="10" x1="32.6" y1="43.8" x2="41" y2="73.7"/>
	</g>
</g>
</svg>
